# xmcd
#
# Track frame offsets:
#	150
#	18258
#	34704
#	50859
#	66149
#	82450
#	97796
#	115211
#	132437
#	147707
#	167455
#	182135
#	200180
#	214678
#	232878
#	248620
#	260892
#	276912
#
# Disc length: 3899
#
# Revision: 3
# Processed by: cddbd v1.5.1PL0 Copyright (c) Steve Scherf et al.
# Submitted via: audiograbber 1.83.01
# Normalized: r2:DSETVAR1
#
DISCID=130f3912
DTITLE=Various Artist - CDX 362
DYEAR=2005
DGENRE=Country
TTITLE0=Shania Twain - Don't!
TTITLE1=SheDaisy - Don't Worry 'Bout A Thing
TTITLE2=Jeff Carson and Lisa Brokop - God Save The World
TTITLE3=Blake Shelton - Goodbye Time
TTITLE4=Lila McCann - Go Easy On Me
TTITLE5=David Ball - Happy With The One I've Got
TTITLE6=Travis Tritt - I See Me
TTITLE7=Kinleys - I Will
TTITLE8=Wilkinsons - L.A.
TTITLE9=Jedd Hughes - Soldier For The Lonely
TTITLE10=Shelly Fairchild - Tiny Town
TTITLE11=Aaron Lines - Waitin' On The Wonderful
TTITLE12=Julie Roberts - Wake Up Older
TTITLE13=Jay Teter - Until You Find Your Mr Right
TTITLE14=Chris Bullinger - Colors I Flew
TTITLE15=Last Man Standing - I Could Do It With My Eyes Closed
TTITLE16=Joe Bonson - Love Train
TTITLE17=Cody Widner - When The Smoke Clears
EXTD=
EXTT0=
EXTT1=
EXTT2=
EXTT3=
EXTT4=
EXTT5=
EXTT6=
EXTT7=
EXTT8=
EXTT9=
EXTT10=
EXTT11=
EXTT12=
EXTT13=
EXTT14=
EXTT15=
EXTT16=
EXTT17=
PLAYORDER=
